<svg width="24" height="24" viewBox="0 0 24 24" fill="none" xmlns="http://www.w3.org/2000/svg">
<path d="M10.2073 17.3733L18.6996 8.88097L17.3684 7.54982L10.2073 14.711L6.60728 11.111L5.27613 12.4421L10.2073 17.3733ZM12.0021 24C10.3424 24 8.78236 23.6851 7.32198 23.0552C5.86157 22.4253 4.59123 21.5704 3.51096 20.4906C2.43066 19.4108 1.57543 18.141 0.945255 16.6813C0.315085 15.2215 0 13.6618 0 12.0021C0 10.3424 0.314948 8.78236 0.944845 7.32198C1.57474 5.86157 2.42959 4.59123 3.50938 3.51096C4.58919 2.43066 5.85897 1.57543 7.31872 0.945256C8.77845 0.315086 10.3382 0 11.9979 0C13.6576 0 15.2176 0.31495 16.678 0.944846C18.1384 1.57474 19.4088 2.42959 20.489 3.50938C21.5693 4.58919 22.4246 5.85897 23.0547 7.31873C23.6849 8.77846 24 10.3382 24 11.9979C24 13.6576 23.6851 15.2176 23.0552 16.678C22.4253 18.1384 21.5704 19.4088 20.4906 20.489C19.4108 21.5693 18.141 22.4246 16.6813 23.0547C15.2215 23.6849 13.6618 24 12.0021 24Z" fill="#76EF83"></path>
</svg>
