<svg width="14" height="14" viewBox="0 0 14 14" fill="none" xmlns="http://www.w3.org/2000/svg">
<g clip-path="url(#clip0_1605_763)">
<path d="M9.70088 1.69174C9.24181 1.30266 8.76056 0.893738 8.27056 0.448062C7.89466 0.10621 7.387 -0.0522192 6.88338 0.0152378C6.39535 0.0797144 5.96113 0.3575 5.69806 0.773562C5.00271 1.93556 4.51107 3.20784 4.24438 4.53549C4.13974 4.38439 4.04691 4.22546 3.96671 4.06006C3.69043 3.47797 2.99458 3.23004 2.41249 3.50632C2.27156 3.57321 2.14548 3.66768 2.04171 3.78414C1.06327 4.78399 0.520847 6.1308 0.533207 7.52971C0.505398 10.47 2.4832 13.0516 5.32938 13.7901C5.85895 13.9233 6.40265 13.9922 6.94871 13.9954C6.96621 13.9954 7.15228 13.9936 7.22753 13.9884C10.71 13.8756 13.4736 11.0175 13.4692 7.53321C13.4669 4.89074 11.7216 3.40906 9.70088 1.69174ZM6.93413 12.8246C6.5 12.7916 6.07097 12.6158 5.74706 12.3545C5.23983 11.9955 4.90419 11.4692 4.82423 10.8629C4.72506 9.91671 5.30841 8.67946 6.50016 7.28181C6.62512 7.13585 6.80794 7.05221 7.00009 7.05314C7.18974 7.05177 7.3701 7.13519 7.49184 7.28064C8.58384 8.57681 9.18351 9.77264 9.18351 10.6482C9.18015 11.7986 8.281 12.7086 7.13601 12.8194C7.08573 12.8243 7.00006 12.8316 6.93413 12.8246ZM10.2527 11.7151C10.2183 11.742 10.1804 11.7636 10.1454 11.7892C10.28 11.4234 10.3493 11.0368 10.3502 10.647C10.3502 9.17296 9.27974 7.59328 8.38259 6.52753C8.03934 6.12101 7.53446 5.8863 7.00241 5.88586H7.00006C6.46694 5.8849 5.96023 6.11801 5.61406 6.52343C4.18781 8.19411 3.53273 9.69501 3.66688 10.9848C3.69874 11.2842 3.77522 11.5771 3.89381 11.8539C2.50863 10.8503 1.69245 9.24023 1.70163 7.52968C1.69037 6.41846 2.12858 5.34981 2.91671 4.56636C3.05127 4.84609 3.21284 5.11198 3.39913 5.36028C3.65499 5.70618 4.09208 5.86669 4.51096 5.76861C4.93804 5.67414 5.26964 5.33729 5.35738 4.90878C5.59175 3.67 6.03961 2.48137 6.68096 1.39596C6.75987 1.27187 6.89022 1.18968 7.03621 1.17196C7.19937 1.15 7.36384 1.20149 7.48538 1.31253C7.98588 1.76753 8.47706 2.18753 8.94371 2.58246C10.8909 4.23621 12.2985 5.43089 12.2985 7.53321C12.3035 9.16927 11.5483 10.7149 10.2545 11.7163L10.2527 11.7151Z" fill="#FF8A24"/>
</g>
<defs>
<clipPath id="clip0_1605_763">
<rect width="14" height="14" fill="white"/>
</clipPath>
</defs>
</svg>
