<svg width="40" height="40" viewBox="0 0 40 40" fill="none" xmlns="http://www.w3.org/2000/svg">
<rect width="40" height="40" rx="11" fill="#2C2C2C"/>
<path fill-rule="evenodd" clip-rule="evenodd" d="M11 14.5C11 11.8748 11.0281 11 14.5 11C17.9719 11 18 11.8748 18 14.5C18 17.1252 18.0111 18 14.5 18C10.9889 18 11 17.1252 11 14.5Z" stroke="#D9D9D9" stroke-width="1.5" stroke-linecap="round" stroke-linejoin="round"/>
<path fill-rule="evenodd" clip-rule="evenodd" d="M22 14.5C22 11.8748 22.0281 11 25.5 11C28.9719 11 29 11.8748 29 14.5C29 17.1252 29.0111 18 25.5 18C21.9889 18 22 17.1252 22 14.5Z" stroke="#D9D9D9" stroke-width="1.5" stroke-linecap="round" stroke-linejoin="round"/>
<path fill-rule="evenodd" clip-rule="evenodd" d="M11 25.5C11 22.8748 11.0281 22 14.5 22C17.9719 22 18 22.8748 18 25.5C18 28.1252 18.0111 29 14.5 29C10.9889 29 11 28.1252 11 25.5Z" stroke="#D9D9D9" stroke-width="1.5" stroke-linecap="round" stroke-linejoin="round"/>
<path fill-rule="evenodd" clip-rule="evenodd" d="M22 25.5C22 22.8748 22.0281 22 25.5 22C28.9719 22 29 22.8748 29 25.5C29 28.1252 29.0111 29 25.5 29C21.9889 29 22 28.1252 22 25.5Z" stroke="#D9D9D9" stroke-width="1.5" stroke-linecap="round" stroke-linejoin="round"/>
</svg>
