<svg width="24" height="24" viewBox="0 0 24 24" fill="none" xmlns="http://www.w3.org/2000/svg">
<g clip-path="url(#clip0_1608_274)">
<path d="M12.5833 5.58333V6.75C12.5833 6.90471 12.5219 7.05308 12.4125 7.16248C12.3031 7.27188 12.1547 7.33333 12 7.33333C11.8453 7.33333 11.6969 7.27188 11.5875 7.16248C11.4781 7.05308 11.4167 6.90471 11.4167 6.75V5.58333C11.4167 5.42862 11.4781 5.28025 11.5875 5.17085C11.6969 5.06146 11.8453 5 12 5C12.1547 5 12.3031 5.06146 12.4125 5.17085C12.5219 5.28025 12.5833 5.42862 12.5833 5.58333ZM12 16.6667C11.8453 16.6667 11.6969 16.7281 11.5875 16.8375C11.4781 16.9469 11.4167 17.0953 11.4167 17.25V18.4167C11.4167 18.5714 11.4781 18.7197 11.5875 18.8291C11.6969 18.9385 11.8453 19 12 19C12.1547 19 12.3031 18.9385 12.4125 18.8291C12.5219 18.7197 12.5833 18.5714 12.5833 18.4167V17.25C12.5833 17.0953 12.5219 16.9469 12.4125 16.8375C12.3031 16.7281 12.1547 16.6667 12 16.6667ZM7.33333 12C7.33333 11.8453 7.27188 11.6969 7.16248 11.5875C7.05308 11.4781 6.90471 11.4167 6.75 11.4167H5.58333C5.42862 11.4167 5.28025 11.4781 5.17085 11.5875C5.06146 11.6969 5 11.8453 5 12C5 12.1547 5.06146 12.3031 5.17085 12.4125C5.28025 12.5219 5.42862 12.5833 5.58333 12.5833H6.75C6.90471 12.5833 7.05308 12.5219 7.16248 12.4125C7.27188 12.3031 7.33333 12.1547 7.33333 12ZM18.4167 11.4167H17.25C17.0953 11.4167 16.9469 11.4781 16.8375 11.5875C16.7281 11.6969 16.6667 11.8453 16.6667 12C16.6667 12.1547 16.7281 12.3031 16.8375 12.4125C16.9469 12.5219 17.0953 12.5833 17.25 12.5833H18.4167C18.5714 12.5833 18.7197 12.5219 18.8291 12.4125C18.9385 12.3031 19 12.1547 19 12C19 11.8453 18.9385 11.6969 18.8291 11.5875C18.7197 11.4781 18.5714 11.4167 18.4167 11.4167ZM15.5105 5.94383C15.4442 5.90539 15.371 5.88039 15.295 5.87026C15.2191 5.86013 15.1418 5.86506 15.0678 5.88478C14.9937 5.9045 14.9243 5.93862 14.8634 5.98518C14.8026 6.03175 14.7515 6.08985 14.7131 6.15617L14.1297 7.16592C14.0524 7.29983 14.0313 7.45899 14.0712 7.60842C14.1112 7.75784 14.2088 7.8853 14.3427 7.96275C14.4311 8.01449 14.5318 8.04168 14.6343 8.0415C14.7367 8.0415 14.8373 8.01454 14.926 7.96334C15.0147 7.91215 15.0883 7.83851 15.1395 7.74983L15.7228 6.74008C15.8001 6.6063 15.8211 6.44733 15.7813 6.29805C15.7415 6.14877 15.6441 6.02138 15.5105 5.94383ZM9.65908 16.0372C9.52525 15.9598 9.36613 15.9387 9.21671 15.9785C9.0673 16.0183 8.9398 16.1158 8.86225 16.2496L8.27892 17.2593C8.20147 17.3932 8.18033 17.5523 8.22014 17.7017C8.25996 17.8511 8.35747 17.9786 8.49125 18.0562C8.57975 18.1079 8.68043 18.135 8.78292 18.1349C8.88541 18.135 8.98612 18.1081 9.07491 18.0569C9.16369 18.0057 9.23742 17.932 9.28867 17.8432L9.872 16.8335C9.94921 16.6996 9.97016 16.5406 9.93024 16.3913C9.89032 16.242 9.7928 16.1147 9.65908 16.0372ZM7.75042 8.86225L6.74067 8.27892C6.60711 8.20705 6.45082 8.19002 6.30492 8.23144C6.15903 8.27286 6.035 8.36947 5.95913 8.50079C5.88326 8.63212 5.86153 8.78783 5.89853 8.93491C5.93553 9.08199 6.02836 9.20887 6.15733 9.28867L7.16708 9.872C7.30064 9.94387 7.45693 9.9609 7.60283 9.91948C7.74872 9.87806 7.87275 9.78145 7.94862 9.65012C8.02449 9.5188 8.04622 9.36309 8.00922 9.21601C7.97222 9.06893 7.87939 8.94204 7.75042 8.86225ZM17.8421 14.7131L16.8323 14.1297C16.6988 14.0579 16.5425 14.0408 16.3966 14.0823C16.2507 14.1237 16.1267 14.2203 16.0508 14.3516C15.9749 14.483 15.9532 14.6387 15.9902 14.7857C16.0272 14.9328 16.12 15.0597 16.249 15.1395L17.2587 15.7228C17.3472 15.7746 17.4479 15.8018 17.5504 15.8016C17.6788 15.8016 17.8036 15.7592 17.9055 15.681C18.0074 15.6029 18.0806 15.4933 18.1138 15.3692C18.1471 15.2452 18.1385 15.1137 18.0893 14.995C18.0402 14.8764 17.9533 14.7773 17.8421 14.7131ZM9.28692 6.15617C9.20712 6.02719 9.08024 5.93436 8.93316 5.89736C8.78608 5.86036 8.63037 5.8821 8.49904 5.95796C8.36772 6.03383 8.27111 6.15786 8.22969 6.30376C8.18827 6.44965 8.2053 6.60595 8.27717 6.7395L8.8605 7.74925C8.9117 7.83793 8.98533 7.91156 9.07401 7.96276C9.16268 8.01396 9.26327 8.04091 9.36567 8.04092C9.46817 8.0411 9.56885 8.01391 9.65733 7.96217C9.79121 7.88471 9.88885 7.75726 9.92877 7.60783C9.9687 7.45841 9.94765 7.29924 9.87025 7.16533L9.28692 6.15617ZM15.1377 16.2478C15.058 16.1189 14.9311 16.026 14.784 15.989C14.6369 15.952 14.4812 15.9738 14.3499 16.0496C14.2186 16.1255 14.1219 16.2495 14.0805 16.3954C14.0391 16.5413 14.0561 16.6976 14.128 16.8312L14.7113 17.8409C14.7911 17.9699 14.918 18.0627 15.0651 18.0997C15.2122 18.1367 15.3679 18.115 15.4992 18.0391C15.6305 17.9633 15.7271 17.8392 15.7686 17.6933C15.81 17.5474 15.793 17.3911 15.7211 17.2576L15.1377 16.2478ZM16.5424 9.94783C16.6448 9.94783 16.7454 9.92087 16.8341 9.86967L17.8438 9.28633C17.9728 9.20654 18.0656 9.07965 18.1026 8.93257C18.1396 8.78549 18.1179 8.62978 18.042 8.49846C17.9662 8.36714 17.8421 8.27052 17.6962 8.2291C17.5503 8.18768 17.3941 8.20471 17.2605 8.27658L16.2507 8.85992C16.1398 8.92425 16.0532 9.02334 16.0043 9.14186C15.9553 9.26037 15.9468 9.39171 15.98 9.51556C16.0132 9.6394 16.0863 9.74886 16.188 9.827C16.2896 9.90514 16.4142 9.94761 16.5424 9.94783ZM7.16592 14.128L6.15617 14.7113C6.04497 14.7755 5.95806 14.8746 5.90892 14.9933C5.85979 15.1119 5.85117 15.2434 5.8844 15.3675C5.91764 15.4915 5.99087 15.6011 6.09274 15.6793C6.19461 15.7575 6.31943 15.7998 6.44783 15.7998C6.55033 15.8 6.65102 15.7728 6.7395 15.7211L7.74925 15.1377C7.87823 15.058 7.97105 14.9311 8.00806 14.784C8.04506 14.6369 8.02332 14.4812 7.94745 14.3499C7.87159 14.2186 7.74756 14.1219 7.60166 14.0805C7.45576 14.0391 7.29947 14.0561 7.16592 14.128Z" fill="#EF9476"></path>
</g>
<circle cx="12" cy="12" r="11" stroke="#EF9A76" stroke-width="2"></circle>
<defs>
<clipPath id="clip0_1608_274">
<rect width="14" height="14" fill="white" transform="translate(5 5)"></rect>
</clipPath>
</defs>
</svg>
